<svg xmlns="http://www.w3.org/2000/svg" width="180" height="180" viewBox="0 0 180 180" shape-rendering="geometricPrecision">
  <path d="M 135.5 130.25 L 131.25 134.5 L 130.75 136.5 L 130 137.75 L 129.75 139.75 L 130 146.5 L 131.25 150.75 L 133 154.75 L 133 156.25 L 136.25 160.5 L 136.25 161.5 L 138.25 163.5 L 138.25 164.25 L 141.25 167.5 L 141.25 168.25 L 145.25 172.5 L 146.25 172.5 L 147.25 173.5 L 148.25 173.5 L 149.5 174.75 L 150.25 174.5 L 152.25 174.75 L 153.5 173.5 L 155.25 173.75 L 156.5 172.5 L 157.25 172.5 L 166.75 163.25 L 172.5 155.5 L 172.5 154.5 L 173.5 153.5 L 173.5 152.5 L 174.5 151.5 L 174.5 150.5 L 175.75 149.25 L 175.5 146.5 L 176.75 145.25 L 176.5 144.5 L 176.75 140.5 L 175.5 139.25 L 175.75 137.5 L 174.5 136.25 L 174.5 135.25 L 173.25 134 L 172.25 134 L 171.25 133 L 169.25 132 L 164.25 131 L 162.5 131.25 L 158.25 133 L 154.25 136.5 L 154 137.5 L 152.75 138.75 L 152.25 138.75 L 148.75 133.5 L 147.25 132 L 144.25 130 L 141.25 129.25 L 139.5 129.25 Z M 137.5 130.75 L 141.75 130.5 L 145.75 132.25 L 149 135.5 L 151 138.5 L 152 140.5 L 152 141.25 L 152.5 141.75 L 154.75 137.75 L 157 135.5 L 161.5 132.75 L 164 132.25 L 167.25 132.5 L 170.25 133.75 L 172.25 135.5 L 174 138.75 L 174.5 142.25 L 174.5 146 L 174 149.5 L 173.25 151.25 L 172.25 152.5 L 172.25 153.25 L 170.25 156.25 L 163.25 164 L 157 170.25 L 154 172.25 L 153.25 172.25 L 152.5 172.75 L 149.5 172.75 L 147.5 172 L 143.5 168 L 139.75 163.25 L 134.5 155.25 L 132.75 151.75 L 132.5 150.25 L 131.75 148.75 L 131.5 146.25 L 131 145.5 L 130.75 143.5 L 131 139 L 131.75 136.5 L 133.5 133.75 L 135 132.25 Z M 14.5 118.25 L 11.25 121.25 L 10 124.25 L 10 125.5 L 9.75 125.75 L 10 126.75 L 10 130.25 L 10.25 130.5 L 10.25 132.25 L 10.75 132.75 L 10.75 133.5 L 10.25 134 L 10.25 134.5 L 11.25 135.5 L 11.25 137.25 L 12 138 L 12.25 139.25 L 14.25 141.5 L 14.25 142.5 L 15.25 143.5 L 15.25 144.25 L 19.25 148.5 L 19.5 149.5 L 20.25 149.5 L 22.25 151.5 L 23.25 151.5 L 24.5 152.75 L 25.25 152.5 L 28.25 152.5 L 29 151.75 L 30.5 151.5 L 31.5 150.5 L 32.25 150.5 L 36.5 146.5 L 36.5 145.25 L 41.5 139.5 L 42 138.25 L 43.5 136.25 L 45.25 131 L 45.25 126.25 L 44.75 125.5 L 44.75 124.5 L 44 123.5 L 43.75 122.5 L 41.25 120.25 L 40 120 L 39.25 119.25 L 38.25 119 L 35 119 L 34.25 119.5 L 32.5 120 L 30.25 121.75 L 27.75 124.25 L 27.25 124.25 L 25 121.25 L 23.5 119.75 L 20.75 118 L 20 118 L 19 117.5 L 17.75 117.5 L 17.5 117.75 L 16.25 117.75 L 15.25 118.25 Z M 16.25 119 L 19.5 119 L 22.25 120.25 L 25 123 L 25.25 123.75 L 26 124.5 L 27.25 127.25 L 27.75 127 L 27.75 126.25 L 28.75 125 L 28.75 124.5 L 30.75 122.5 L 31.75 121.75 L 32.75 121.5 L 33.5 120.75 L 35.5 120.5 L 35.75 120.25 L 37.5 120.25 L 37.75 120.5 L 39 120.5 L 41 121.75 L 42.25 123 L 43.25 124.5 L 43.25 125.5 L 43.75 126.25 L 43.75 127.5 L 44 127.75 L 44 131 L 43.75 131.25 L 43.75 132.5 L 43.25 133.25 L 43.25 134 L 42.25 135.5 L 42 136.5 L 40.25 138.5 L 39.25 140.25 L 30.75 149 L 29.25 150.25 L 28.75 150.25 L 27.5 151 L 24.75 151 L 24.25 150.5 L 23 150 L 19.5 146.25 L 18.5 144.5 L 16.5 142.25 L 16.25 141.5 L 14.5 139.25 L 14.5 138.75 L 13.75 138 L 13.5 137 L 12.75 136.25 L 12.75 135.5 L 11.75 133.75 L 11.75 132.5 L 11.5 132.25 L 11.5 131.25 L 11 130.5 L 11 129 L 10.75 128.75 L 11 125.25 L 11.5 124.5 L 11.5 123.75 L 12.5 122 L 14.75 119.75 L 15.75 119.5 Z M 28.5 6 L 27.25 7.25 L 26.25 7.25 L 21.25 12.5 L 21.25 14.25 L 20 15.5 L 20.25 18.25 L 19.25 19.5 L 19.25 24.25 L 20.25 25.5 L 20 30.25 L 21.25 31.5 L 21 33.25 L 22.25 34.5 L 22 36.25 L 23.25 37.5 L 23.25 38.5 L 24.25 39.5 L 24.25 40.25 L 26.25 42.5 L 26.25 43.5 L 28.25 45.5 L 28.25 46.5 L 30 47.5 L 36 56.25 L 40.25 60.5 L 44.5 62.5 L 48.25 62.5 L 52 61.25 L 58 56.75 L 62.5 52.25 L 62.75 51.5 L 69.5 44.25 L 74.75 37 L 76.5 33.25 L 77.75 28.75 L 77.75 21.75 L 76.75 18 L 76.5 14.5 L 72.5 10.25 L 71.5 10.25 L 70.25 9 L 68.5 9.25 L 67.25 8 L 61.5 8 L 60.25 9.25 L 58.5 9 L 57.25 10.25 L 56.25 10.25 L 54.25 12.25 L 53.5 12.25 L 51.25 14.5 L 51.25 15.25 L 48.5 18 L 48 18 L 47.5 17.5 L 47.5 16.25 L 45.5 14.25 L 45.5 13.25 L 39.5 7.25 L 38.5 7.25 L 37.25 6 Z M 29.5 7.75 L 35 7.5 L 38 8.5 L 39.75 9.75 L 45.25 15.5 L 48.5 22 L 49 21.75 L 49.75 19.5 L 51.5 16.75 L 53.75 14.25 L 57.5 11.5 L 62 9.75 L 67 9.75 L 69 10.5 L 72.25 12.5 L 75 15.75 L 76.5 21.75 L 76.5 28 L 76 31 L 74 35.5 L 70.25 41.25 L 64.25 48 L 54 58.25 L 49.75 61 L 47.5 61.5 L 43.5 61 L 41.75 60 L 37.75 56 L 27.5 42.25 L 27.5 41.5 L 25.75 39.25 L 22.75 33 L 20.75 23.25 L 20.75 20.5 L 21.75 15.75 L 23.5 12.5 L 26.5 9.5 Z" fill="#f7f0f0" fill-rule="evenodd"/>
  <path d="M 83.25 127 L 82.75 127.75 L 82.75 129.5 L 83 129.75 L 83 130.25 L 83.5 130.75 L 83.5 132.75 L 83.75 133 L 83.75 133.5 L 84.25 134 L 86 134 L 86.75 134.5 L 87.5 134.5 L 87.75 134.25 L 89.25 134.25 L 89.5 134.5 L 89.5 137 L 89 137.5 L 88.5 137.5 L 88 137 L 88 136.75 L 87.75 136.5 L 87 136.5 L 86.75 136.75 L 86.75 137.75 L 87 138 L 88.25 138 L 89 138.5 L 89.5 138.5 L 89.75 138.25 L 89.75 136.75 L 91 135.5 L 93.25 135.5 L 93.5 135.25 L 93.5 134.5 L 89.5 134.5 L 89.25 134.25 L 89.25 132.5 L 89.5 132.25 L 91 132.25 L 91.5 132.75 L 93 132.75 L 93.5 133.25 L 94.25 133.25 L 95 132.5 L 95 131.25 L 94.75 131 L 93.75 131 L 93.25 130.5 L 93.25 129.5 L 93.75 129 L 94.25 129 L 94.5 128.75 L 94.5 128 L 94.25 127.75 L 92.75 127.75 L 92 127.25 L 90.25 127.25 L 89.75 126.75 L 89.75 126.25 L 89 125.75 L 86.75 125.75 L 86.5 126 L 86.25 126 L 86 126.25 L 86 128 L 85.5 128.5 L 85 128.5 L 84.5 128 L 84.5 127.25 L 84.25 127 Z M 87.25 130.75 L 87.75 130.25 L 89 130.25 L 89.5 130.75 L 89.5 132.25 L 89.25 132.5 L 87.75 132.5 L 87.25 132 Z M 2.75 123 L 2.5 123.25 L 2.5 126.5 L 2.75 126.75 L 3.75 126.75 L 4 126.5 L 4 123.5 L 3.5 123 Z M 5.75 107.75 L 5.5 108 L 5.5 110 L 5.75 110.25 L 6.75 110.25 L 7 110 L 7 108 L 6.75 107.75 Z M 21.75 51 L 21 51 L 19.25 52.75 L 19.25 53 L 18.75 53.5 L 18 53.5 L 17.75 53.75 L 17.75 54 L 17 54.75 L 16.75 54.75 L 16.5 55 L 16.5 55.75 L 15.5 56.75 L 15.25 56.75 L 14.75 57.25 L 14.75 58 L 15 58.25 L 15.75 58.25 L 16.25 57.75 L 16.25 57.5 L 16.75 57 L 16.75 56.75 L 17.25 56.25 L 17.75 56.25 L 19.25 54.75 L 19.25 54.5 L 19.75 54 L 20 54 L 20.75 53.25 L 21 53.25 L 22 52.25 L 22 51.25 Z M 139 33.5 L 130.25 30 L 123.25 31 L 118.75 24.5 L 112.25 20.75 L 103.5 20.75 L 96.75 26.5 L 85.25 21.75 L 78.25 22 L 76.25 36 L 58 57.5 L 58.75 63.25 L 66.5 71 L 76 73 L 88.25 63 L 91.5 72.25 L 101.75 74 L 108 66.75 L 115.25 70 L 121 68.25 L 123.25 64.25 L 121.75 57.5 L 124.25 56.25 L 127.75 61.5 L 124.5 71 L 118.25 74.25 L 109 72.25 L 102.25 78.5 L 92.5 77.5 L 86 73.25 L 78.25 76.75 L 68.75 76.5 L 59.5 71.75 L 53.75 61.5 L 43.75 63.25 L 31.5 51.5 L 18.75 61 L 13.75 69.5 L 15.5 84.75 L 7.75 93.5 L 7.75 101 L 12.75 107.5 L 7.75 118 L 7.75 124.5 L 16.25 116.75 L 21.5 117.5 L 27 123 L 33.75 118.5 L 41 117.25 L 47 107.25 L 46 85 L 48.5 84 L 51.75 95.5 L 51.75 107.25 L 43.75 120.75 L 46.25 131 L 40.75 141.25 L 45 150 L 53 153 L 67.75 150 L 76.75 157 L 88.25 159 L 93.75 153.75 L 101 156 L 111 155 L 119.5 148.25 L 129 151 L 130.5 134.25 L 139.25 128.25 L 139.25 122.5 L 132.25 115 L 129 106.25 L 131 85.5 L 134 84 L 134.75 110 L 144.5 120.5 L 145 130.25 L 153.5 136.25 L 159.25 131.5 L 170 129 L 173.5 120.5 L 168.25 108 L 173.75 96.5 L 165.5 84.25 L 168 74.75 L 167 68.75 L 162.25 61 L 150 51 L 151 47 L 144.25 45 Z M 85.5 109.25 L 91.25 109.5 L 91.75 110 L 93.25 110 L 94.5 111 L 94.75 114.25 L 93.75 115.75 L 93.75 117.25 L 92.75 118.75 L 90.75 120.25 L 90.75 121 L 91.5 122 L 92.75 122.25 L 95 124 L 96.5 124.25 L 97.5 125 L 99.75 125 L 103 122.25 L 103.5 119.5 L 102 117.5 L 102 115.5 L 103 114.25 L 104.75 114.25 L 107.5 117 L 107.75 119 L 108.25 119.5 L 108.25 121.25 L 107.5 124.5 L 104.75 127.5 L 103.75 127.75 L 103 128.5 L 100.25 128.75 L 99.75 129.25 L 99.5 132 L 98.75 132.75 L 98.75 134.25 L 97.75 135.75 L 97.5 137.25 L 95.5 140.25 L 94.25 141.5 L 93.25 141.75 L 92 142.75 L 86.5 142.75 L 84.25 141.5 L 82 139.25 L 81 137 L 80.25 136.25 L 80 134.5 L 79 132.25 L 78.75 129 L 77.75 128.25 L 73 127.5 L 71 125.75 L 70 124.25 L 70.25 118.75 L 71.5 117 L 73.75 115.75 L 75 115.75 L 76.5 116.75 L 76.5 118.75 L 75.75 119.5 L 75.75 122 L 77.75 124 L 79.25 124 L 80.5 123.25 L 82.75 123 L 83.5 122.25 L 85 122 L 86 121 L 86 119 L 82 115.25 L 81.75 113 L 82 110.5 L 82.5 110 L 83.75 110 Z M 105.75 100.25 L 106.25 100 L 113.25 100 L 113.5 100.25 L 114 100.25 L 114.5 100.75 L 115.25 100.75 L 115.5 101 L 117.75 101 L 118 101.25 L 118.75 101.25 L 120.5 102.75 L 120.5 104.75 L 119.75 105.5 L 119.75 109 L 120.25 109.5 L 120.25 111 L 120.5 111.25 L 122.5 111 L 124 111.75 L 125 111.75 L 127 112.75 L 129.75 115.75 L 130.75 118.25 L 130.75 121.5 L 130 123 L 130 124 L 128.5 125.5 L 127.5 127 L 125.25 128.5 L 124.75 128.5 L 124 129 L 117.75 129 L 117 128.25 L 115.75 128 L 113.75 126 L 113 125 L 112.5 123.75 L 111.75 123 L 111.5 119 L 111.75 118.75 L 111.75 117 L 112.5 116.25 L 112.75 115.25 L 113.75 114.5 L 113.75 114 L 114.5 113.25 L 114.5 112.5 L 114 112 L 113.5 112 L 113.25 111.75 L 107.5 111.75 L 107.25 111.5 L 105.25 111.5 L 104 110.25 L 104 108.5 L 104.75 107.5 L 104.75 106.75 L 104.25 106.25 L 104.25 104.75 L 105 104 L 105 101 Z M 75.25 99 L 76.5 100.5 L 76.5 102 L 75.5 103 L 75.5 105.75 L 75.75 106 L 75.75 106.75 L 76.5 107.5 L 76.5 109.25 L 75.25 110.25 L 70 110.25 L 69.75 110.5 L 68.25 110.5 L 68 110.75 L 65.5 110.75 L 65 111.25 L 65 112.5 L 67.5 115.5 L 68.25 117.75 L 68.25 121 L 67 124.5 L 66.25 125 L 64.5 127 L 63 128 L 62 128 L 60.5 128.75 L 56.25 128.75 L 55.5 128 L 54 128 L 52.75 127 L 50 124 L 49.75 123.5 L 49.75 122.25 L 49 121.5 L 49 118 L 49.5 117.25 L 49.75 115.75 L 50.25 115 L 53.75 111.75 L 54.5 111.75 L 55.25 111 L 56.75 111 L 57 110.75 L 59.25 110.75 L 60 111.5 L 60.75 111.25 L 60.25 107.75 L 59.25 107 L 59.25 105 L 60.25 104 L 60.25 101.25 L 61.75 100 L 63.25 100 L 64.5 99.25 L 65.25 99.25 L 65.5 99 Z M 91 17.5 L 90.75 17.75 L 90.75 18.75 L 91 19 L 91.25 19 L 92 19.75 L 92.75 19.75 L 93 19.5 L 93 18.75 L 92.75 18.5 L 92.25 18.5 L 91.75 18 L 91.75 17.75 L 91.5 17.5 Z" fill="#c7946b" fill-rule="evenodd"/>
  <path d="M 87.75 130.5 L 87.5 130.75 L 87.5 132 L 87.75 132.25 L 89.25 132.25 L 89.5 132.5 L 89.5 134.25 L 89.25 134.5 L 87.75 134.5 L 87.5 134.75 L 87.5 136 L 87.75 136.25 L 89 136.25 L 89.25 136 L 89.25 134.5 L 89.5 134.25 L 91 134.25 L 91.25 134 L 91.25 132.75 L 91 132.5 L 89.5 132.5 L 89.25 132.25 L 89.25 130.75 L 89 130.5 Z M 126.25 112.5 L 125.75 112.5 L 125 112 L 124 112 L 123.75 111.75 L 123.5 111.75 L 123.25 111.5 L 122.75 111.5 L 122.5 111.25 L 121.5 111.25 L 120.5 112.25 L 120.5 112.5 L 119.5 113.5 L 119.25 113.5 L 118.75 114 L 117 114 L 116.5 113.5 L 114.5 113.5 L 114 114 L 114 114.5 L 113.5 115 L 113.25 115 L 113 115.25 L 113 115.75 L 112.75 116 L 112.75 116.25 L 112 117 L 112 118.75 L 111.75 119 L 111.75 120.75 L 112 121 L 112 123 L 112.75 123.75 L 112.75 124 L 113 124.25 L 113.25 125 L 114 125.75 L 114 126 L 115.75 127.75 L 116.5 127.75 L 116.75 128 L 117 128 L 117.75 128.75 L 124 128.75 L 124.75 128.25 L 125.25 128.25 L 125.75 127.75 L 126 127.75 L 126.5 127.25 L 126.75 127.25 L 127.25 126.75 L 127.5 126.75 L 127.75 126.5 L 127.75 126.25 L 128.25 125.75 L 128.25 125.5 L 129.75 124 L 129.75 123 L 130 122.75 L 130 122.5 L 130.25 122.25 L 130.25 121.75 L 130.5 121.5 L 130.5 118.25 L 130.25 118 L 130.25 117.5 L 129.75 116.75 L 129.75 116.25 L 129.5 116 L 129.5 115.75 L 128.75 115 L 128.75 114.75 L 127 113 L 126.75 113 Z M 55.25 111.25 L 54.5 112 L 53.75 112 L 51.25 114.5 L 51 114.5 L 50 115.75 L 50 116.5 L 49.75 116.75 L 49.75 117.25 L 49.25 118 L 49.25 121.5 L 50 122.25 L 50 123.5 L 50.25 123.75 L 50.25 124 L 52 125.75 L 52 126 L 52.75 126.75 L 53 126.75 L 54 127.75 L 55.5 127.75 L 56.25 128.5 L 60.5 128.5 L 60.75 128.25 L 61.25 128.25 L 62 127.75 L 63 127.75 L 63.5 127.25 L 63.75 127.25 L 64.25 126.75 L 64.5 126.75 L 64.75 126.5 L 64.75 126.25 L 65.25 125.75 L 65.5 125.75 L 65.75 125.5 L 65.75 125.25 L 66.25 124.75 L 66.5 124.75 L 66.75 124.5 L 66.75 124.25 L 67 124 L 67 123.5 L 67.25 123.25 L 67.25 122.75 L 67.75 122 L 67.75 121.25 L 68 121 L 68 117.75 L 67.75 117.5 L 67.75 116.75 L 67.25 116 L 67.25 115.5 L 66.75 115 L 66.75 114.75 L 65.25 113.25 L 65.25 113 L 65 112.75 L 63.75 112.75 L 63.5 113 L 62 113 L 61.5 112.5 L 61 112.5 L 60.75 112.25 L 60.25 112.25 L 59.5 111.5 L 59.5 111.25 L 59.25 111 L 57 111 L 56.75 111.25 Z" fill="#e39098" fill-rule="evenodd"/>
  <path d="M 138 131.75 L 136.75 133 L 136 133 L 135 133.75 L 134 135 L 134 135.75 L 132.75 136.75 L 133 138.5 L 132.25 139.25 L 132.25 140.25 L 131.75 141.25 L 132.25 145.25 L 133 146 L 133 147 L 132.5 148 L 134 150 L 133.75 151.25 L 135 152.75 L 134.75 153.75 L 135.5 154.5 L 135.5 155 L 137 156 L 137 157.25 L 138.75 159.25 L 138.75 160 L 140 161 L 141.5 164 L 144 166.25 L 144.75 168 L 147.75 171 L 149 170.75 L 149.75 171.5 L 152.25 171.5 L 153.25 170.75 L 154 171.25 L 155 169.75 L 155.75 169.75 L 156.5 169 L 157 169 L 162 164 L 162.75 162.25 L 166.75 158.5 L 167.25 157.5 L 167.75 157.5 L 169.25 156 L 169.75 154.25 L 171.25 153 L 171.25 152.25 L 172.25 151 L 172.25 150 L 173 148.5 L 172.75 140.75 L 173.25 139.75 L 171.75 138 L 171.75 136.5 L 170 134.75 L 169.25 134.75 L 167.5 133.5 L 166.5 134 L 163.25 134 L 162.25 133.5 L 160.75 135 L 159.75 134.75 L 158.75 136 L 158.25 136 L 155 139.5 L 155 140.75 L 152.75 143 L 152 143 L 150.75 141.75 L 150.75 140.75 L 149.75 139.75 L 150 138.75 L 148.75 137.75 L 148.75 137 L 146.75 134.25 L 145.5 133.75 L 144.75 133 L 144 133 L 143 132 L 142.25 131.75 L 141.25 132.25 Z M 16.5 120.25 L 15.75 121 L 15.25 121 L 14.5 121.75 L 13.75 122 L 13.75 122.5 L 12.75 123.5 L 13 124.75 L 12.25 125.5 L 12.25 126.5 L 11.75 127.25 L 11.75 128.5 L 12.25 129.25 L 12.25 130.25 L 13 131 L 13 132 L 12.5 133 L 14 134.75 L 13.75 136 L 14.75 137.25 L 14.75 137.75 L 15.5 138.5 L 15.5 139 L 17 140.25 L 17 141 L 17.5 142 L 19 143 L 19 143.5 L 19.75 144.25 L 19.75 145 L 22 147.5 L 22.5 147.5 L 23 148 L 23.25 148.75 L 24 148.75 L 25.25 150 L 26.75 150 L 28 149.25 L 29 149.25 L 29.75 148.25 L 36.5 141.75 L 36.5 141 L 37 140.5 L 37.75 140.5 L 39 139 L 39 138.25 L 39.75 137.25 L 41.25 136 L 41.25 135.25 L 42 134.25 L 41.75 133 L 42.5 132.25 L 42.5 131.25 L 43 130.5 L 43 128.25 L 42.5 127.5 L 42.5 126.5 L 41.75 125.75 L 41.75 124.25 L 41 123.5 L 40.75 122.75 L 40 123 L 39.25 122 L 34.5 122 L 33.75 121.75 L 32.75 123 L 32 123 L 31.25 123.75 L 30.75 123.75 L 29.75 124.75 L 30 125.75 L 28.5 126.75 L 29 127.5 L 28.5 128 L 27 128.5 L 26.5 128 L 26.25 127 L 24.75 125.75 L 24.75 124.5 L 23.75 123.75 L 23.75 123.25 L 23.25 123 L 22.5 122 L 22 122 L 21.5 121.5 L 21.5 121 L 21 120.5 L 20 121 L 19.25 120.25 Z M 29.75 8.75 L 28.75 10 L 27.5 10 L 24.5 12.75 L 24 14.75 L 22.75 16.5 L 23 18.25 L 22.25 19 L 21.75 22.5 L 22.25 23.25 L 22.25 25.75 L 23 26.5 L 22.5 28.5 L 24 30.75 L 23.75 32.25 L 25 33.75 L 25 35.25 L 26 36 L 26 37.25 L 27 38 L 26.75 39 L 28 40 L 28.5 42 L 30 43.25 L 30.5 45 L 32 46 L 32.75 48 L 35 50.25 L 36.25 52.75 L 37.5 53.5 L 38 54.5 L 43.5 59.75 L 49.25 60 L 50.75 58.75 L 51.5 58.75 L 52.25 57.75 L 54 57 L 63 48 L 63.75 46.25 L 69.25 41 L 70 39.25 L 71.75 37.25 L 71.75 36 L 73.25 35 L 74 33.25 L 73.75 32 L 75 30.5 L 75 19.25 L 73.75 17.5 L 74 16 L 72.5 15 L 72.5 14 L 71.25 13 L 70 13 L 69 11.5 L 68 12 L 66.5 10.75 L 63.25 10.75 L 61.5 11.25 L 60.75 12 L 59.5 11.75 L 57.75 12.5 L 56.5 14 L 53.25 16 L 52 18 L 52 18.75 L 50.75 19.75 L 51 21 L 48.75 23.5 L 48 23.5 L 46.75 22.25 L 47 21 L 45.75 20 L 46 19 L 44.75 18 L 45 17 L 44.25 15.75 L 39.5 11 L 39 11 L 38.25 10 L 36.75 10 L 35.25 8.75 L 34.25 9.25 Z" fill="#c4264b" fill-rule="evenodd"/>
  <path d="M 37 147.5 L 39.25 150.25 L 39.25 151.25 L 41.5 153.5 L 42.5 153.5 L 44.5 155.5 L 45.5 155.5 L 46.5 156.5 L 49.5 156.5 L 50.5 157.5 L 61.25 157.5 L 62.25 156.5 L 64.25 156.5 L 65.25 155.5 L 66.5 155.5 L 69.5 158.5 L 70.5 158.5 L 72.5 160.5 L 73.5 160.5 L 74.5 161.5 L 76.5 161.5 L 79.5 163.5 L 90.25 163.5 L 91.25 162.5 L 94.25 161.5 L 96.25 159.5 L 97.5 159.5 L 98.5 160.5 L 110.25 160.5 L 111.25 159.5 L 113.25 159.5 L 114.25 158.5 L 115.25 158.5 L 120.25 154.5 L 122.5 154.5 L 123.5 155.5 L 131.5 155.25 L 131.25 152.75 L 130.25 151.75 L 130 150.5 L 129 151.25 L 125.75 151.25 L 125 150.5 L 123.25 150.25 L 121 148.5 L 119.5 148.5 L 114.25 153.5 L 111 155.25 L 109 155.5 L 107.75 156.25 L 101 156.25 L 94.5 153.75 L 93 154.75 L 91 157.5 L 88.25 159.25 L 84 159.5 L 81.5 159.25 L 80.75 158.5 L 78.75 158.25 L 73.25 155.25 L 67.75 150.25 L 65.75 150.25 L 62.25 152.25 L 60.5 152.25 L 57.75 153.25 L 53 153.25 L 50.25 152.25 L 48.5 152.25 L 45 150.25 L 42.5 147.75 L 41.5 146 L 40.75 142.5 L 38.25 144.75 Z M 85.5 109.5 L 83.75 110.25 L 82.5 110.25 L 82 113 L 82.25 115.25 L 86.25 119 L 86.25 121 L 85 122.25 L 83.5 122.5 L 82.75 123.25 L 80.5 123.5 L 79.25 124.25 L 77.75 124.25 L 76.25 123 L 75.25 121 L 75.5 119.5 L 76.5 118.25 L 76.25 116.75 L 75 116 L 73.75 116 L 71.5 117.25 L 70.5 118.75 L 70.25 124.25 L 71.25 125.75 L 73 127.25 L 77.25 127.75 L 79 129 L 79.25 132.25 L 80.25 134.5 L 80.5 136.25 L 81.25 137 L 82.25 139.25 L 84.25 141.25 L 86.5 142.5 L 92 142.5 L 93.25 141.5 L 94.25 141.25 L 97.25 137.25 L 97.5 135.75 L 98.5 134.25 L 98.5 132.75 L 99.25 132 L 99.5 129.25 L 100.25 128.5 L 102.25 128.5 L 104.75 127.25 L 107.25 124.5 L 108 121.25 L 108 119.5 L 107.5 119 L 107.25 117 L 104.75 114.5 L 103.5 114.25 L 102.25 115.5 L 102.25 117.5 L 103.75 119.5 L 103.25 122.25 L 99.75 125.25 L 97.5 125.25 L 96.5 124.5 L 95 124.25 L 92.75 122.5 L 91.5 122.25 L 90.5 121 L 90.5 120.25 L 91.25 119.5 L 91.75 119.5 L 93.5 117.25 L 93.5 115.75 L 94.5 114.25 L 94.25 111 L 93.25 110.25 L 90.5 110 L 89.25 109.25 Z M 83.25 126.75 L 83.75 126.75 L 84 126.5 L 84.5 126.5 L 84.75 126.25 L 85.75 126.25 L 86.25 125.75 L 86.5 125.75 L 86.75 125.5 L 89 125.5 L 89.25 125.75 L 89.5 125.75 L 90 126.25 L 90.5 126.25 L 90.75 126.5 L 91.5 126.5 L 92 127 L 92.25 127 L 92.5 127.25 L 93.25 127.25 L 93.5 127.5 L 94.25 127.5 L 94.75 128 L 95 128 L 95.5 128.5 L 95.5 131 L 95.25 131.25 L 95.25 132.5 L 94.75 133 L 94.75 133.25 L 94.5 133.5 L 94.5 134.25 L 94.25 134.5 L 94.25 135 L 93.5 135.75 L 93.5 136.25 L 91.5 138.25 L 91.25 138.25 L 91 138.5 L 90 138.5 L 89.75 138.75 L 88.75 138.75 L 88.5 138.5 L 87.25 138.5 L 84.5 135.75 L 84.5 135.5 L 84.25 135.25 L 84.25 134.25 L 83.5 133.5 L 83.5 133 L 83.25 132.75 L 83.25 130.75 L 82.75 130.25 L 82.75 129.75 L 82.5 129.5 L 82.5 127.75 L 82.75 127.5 L 82.75 127.25 Z M 105.25 101 L 105.25 104 L 104.5 104.75 L 104.5 106.25 L 105 106.75 L 105 107.5 L 104.5 108 L 104.5 108.25 L 104.25 108.5 L 104.25 110.25 L 105.5 111.5 L 106 111.5 L 106.25 111.25 L 107.25 111.25 L 107.5 111.5 L 113.25 111.5 L 113.5 111.75 L 114 111.75 L 114.75 112.25 L 119.25 112.25 L 119.5 112 L 119.5 111.5 L 120 111 L 120 109.5 L 119.5 109 L 119.5 107 L 119.25 106.75 L 119.25 106.25 L 119.5 106 L 119.5 105.5 L 120.25 104.75 L 120.25 104.5 L 120.5 104.25 L 120.5 103.5 L 120.25 103.25 L 120.25 102.75 L 119.75 102.25 L 119.5 102.25 L 118.75 101.5 L 118 101.5 L 117.75 101.25 L 115.5 101.25 L 115.25 101 L 114.5 101 L 114 100.5 L 113.5 100.5 L 113.25 100.25 L 112.75 100.25 L 112.5 100.5 L 112 100.5 L 111.75 100.25 L 106.25 100.25 L 106 100.5 L 105.75 100.5 Z M 60.5 101.25 L 60.5 104 L 59.5 105 L 59.5 105.25 L 59.25 105.5 L 59.25 106.25 L 59.5 106.5 L 59.5 107 L 59.75 107.25 L 60 107.25 L 60.5 107.75 L 60.5 108.25 L 60.75 108.5 L 60.75 110.25 L 61 110.5 L 61 110.75 L 61.5 111.5 L 63.5 111.5 L 63.75 111.25 L 64.75 111.25 L 65.5 110.5 L 68 110.5 L 68.25 110.25 L 69.75 110.25 L 70.5 109.75 L 71.25 109.75 L 71.5 110 L 75.25 110 L 75.75 109.5 L 76 109.5 L 76.25 109.25 L 76.25 107.5 L 75.5 106.75 L 75.5 106 L 75.25 105.75 L 75.25 103 L 76.25 102 L 76.25 100.5 L 75.25 99.25 L 65.5 99.25 L 65.25 99.5 L 64.5 99.5 L 64.25 99.75 L 64 99.75 L 63.25 100.25 L 61.75 100.25 L 61.5 100.5 L 61.25 100.5 Z M 132.5 84.25 L 132 84.5 L 131.25 85.5 L 131.25 87.5 L 130.25 90.5 L 130.25 94.75 L 130 95 L 130 96.25 L 129.25 97.5 L 129.5 98.25 L 129.5 99.75 L 129.25 100 L 129.25 104.75 L 129.5 105.5 L 129.25 106.25 L 129.5 107 L 130 107.5 L 130.25 110.25 L 130.5 111 L 131.25 111.75 L 131.5 113.25 L 132.25 114 L 132.25 114.5 L 133.25 115.75 L 133.5 116.5 L 137 120.25 L 139.25 122 L 139.5 122.5 L 139.5 123.75 L 139.25 124 L 139.5 128 L 139.75 128.25 L 143.5 128.25 L 144.25 129 L 144.5 128.5 L 143.5 127.25 L 143.5 126 L 143.25 125.75 L 143.5 123 L 144.25 122.25 L 144.25 120.5 L 143.25 119.25 L 142.5 119.25 L 141.75 118.5 L 141 118.25 L 140.5 117.5 L 137.25 114.5 L 136.25 113.25 L 136.25 112.75 L 135.5 112 L 135.25 110.75 L 134.5 110 L 134.5 108.5 L 134.25 108.25 L 134 106.5 L 133.5 105.75 L 133.5 95.25 L 134.25 93.25 L 134.5 87 L 135 86.25 L 135 85.5 L 134 84.25 Z M 48.5 84.25 L 47.25 84.25 L 46.25 85 L 46.25 88.75 L 46.5 89 L 46.25 90.25 L 47 91.5 L 47 92.75 L 47.25 93 L 47.25 97.75 L 47.5 98 L 47.5 104.25 L 47.25 104.5 L 47.25 107.25 L 46.5 108.5 L 46.25 110.5 L 45.5 111.5 L 45.5 112 L 44.5 113.25 L 44.25 114 L 43.5 114.75 L 43.5 115 L 41 117.5 L 40 118 L 40 118.5 L 40.75 119.25 L 41.75 119.25 L 42.75 120.5 L 43.75 120.5 L 44.75 119.5 L 45 119.5 L 46.25 118.25 L 46.5 117.5 L 48.25 115.5 L 48.5 114.5 L 49.5 113.25 L 49.5 112.5 L 50.25 111.75 L 50.25 111.25 L 50.5 111 L 50.5 109.5 L 51.25 108.25 L 51.25 107.5 L 51.5 107.25 L 51.5 97 L 51.25 96.75 L 51.25 94.5 L 51 94.25 L 51 93.5 L 50.5 92.75 L 50.5 88.5 L 50.25 88.25 L 50.25 87.5 L 50 87.25 L 49.75 85.5 L 49.5 85 Z M 127.5 65.25 L 127.5 61.5 L 126.5 60 L 126.25 58.5 L 124.75 56.75 L 122.75 56.5 L 121.75 57.75 L 122.25 60.25 L 123.25 61 L 123.25 65.75 L 121 68.5 L 118.25 70.25 L 115.25 70.25 L 110.75 67.5 L 108.5 66.75 L 106.5 68.25 L 104.5 72 L 101.75 74.25 L 95.25 74.25 L 91.5 72.5 L 89.5 70.5 L 88.5 68.75 L 89.25 64 L 88.25 63.25 L 86.25 63.25 L 85.5 63.75 L 85.25 65.75 L 84.25 67.75 L 80.5 71.25 L 78.75 72.25 L 76.75 72.5 L 76 73.25 L 72.25 73.25 L 66.5 71.25 L 62 68.25 L 58.5 63.25 L 57.5 60.25 L 57.5 58.5 L 54.25 60.75 L 55.5 65.75 L 58.25 70.25 L 62 73.25 L 63.25 73.5 L 66 75.25 L 68 75.5 L 69.5 76.5 L 75.25 77 L 81 75.5 L 85.5 72.5 L 88.5 75.5 L 91.75 77 L 96.25 77.75 L 97.5 78.5 L 102.25 78.25 L 105 77.25 L 107.75 75 L 108.5 72.5 L 109.25 71.75 L 115.5 74 L 118.25 74 L 121 73.25 L 124.25 71 L 126.25 68.5 L 126.5 66.75 Z M 29 48 L 28.25 48 L 23 51.5 L 15.75 58.5 L 14.5 58.5 L 14.25 59.5 L 12.25 61.5 L 12.25 62.5 L 10.25 64.5 L 10.25 65.5 L 9.25 66.5 L 9.25 69.5 L 8.25 70.5 L 8.25 78.25 L 9.25 79.25 L 9.25 81.25 L 10.25 82 L 10.25 82.75 L 5.25 87.5 L 5.25 88.5 L 3.25 91.5 L 3.25 94.5 L 2.25 95.5 L 2.25 99.25 L 3.25 100.25 L 3.25 102.25 L 4.25 103 L 4.25 105.25 L 7.25 108 L 7.25 110 L 5.25 110.75 L 5.25 111.5 L 4.25 112.5 L 4.25 114.5 L 3.25 115.5 L 3.25 122.5 L 4.25 123.5 L 3.75 125.25 L 4.25 126 L 4.25 128.25 L 5.25 129.25 L 5.25 130.25 L 8.5 133.5 L 9.25 133.25 L 9.25 130 L 8.75 129.25 L 8.25 125.5 L 7.5 124.5 L 7.5 118 L 9.25 113.75 L 12.25 110.25 L 12.5 107.5 L 11.75 107.25 L 9.5 104.5 L 7.5 101 L 7.5 93.5 L 10.5 89 L 15.25 84.75 L 15.25 81.75 L 14.5 81 L 14.5 79.75 L 13.5 78.25 L 13.5 75.5 L 13 74.75 L 13.5 69.5 L 14.5 68 L 14.5 67 L 17.25 62.5 L 22 57.5 L 30.5 51.25 L 30.25 49.5 Z M 151.5 47.25 L 150.25 49.5 L 150.25 51 L 156.25 55.25 L 162.5 61 L 165.25 64.75 L 166.5 68 L 167.25 68.75 L 168.25 74.75 L 167.25 77.5 L 167.25 79 L 166.25 80.5 L 165.75 84.25 L 172.25 91.25 L 173.25 93 L 174 96.5 L 173.25 101.5 L 172.25 103.5 L 168.25 108.5 L 168.5 109.75 L 172.25 114.5 L 172.5 116.25 L 173.25 117 L 173.75 122.25 L 173.25 125.25 L 172.5 126.5 L 168.5 130.25 L 169.25 131.25 L 170.5 131.25 L 171.5 132.25 L 173.25 132.75 L 176.5 129.25 L 176.5 128.25 L 177.5 127.25 L 177.5 123.25 L 178.5 122.25 L 178.5 119.5 L 177.5 118.5 L 177.5 114.5 L 176.5 113.5 L 176.5 112.5 L 174.5 109.5 L 174.5 108.25 L 176.5 106.25 L 176.5 105.25 L 177.5 104.25 L 177.5 102.25 L 178.5 101.25 L 178.5 93.5 L 177.5 92.5 L 177.5 90.5 L 176.5 89.5 L 176.5 88.5 L 170.5 82.75 L 171.5 81.25 L 171.5 80.25 L 172.5 79.25 L 172.5 69.5 L 171.5 68.5 L 171.5 66.5 L 170.5 65.5 L 169.5 62.5 L 167.5 60.5 L 167.5 59.5 L 160.25 52.25 L 159.25 52.25 L 156.25 49.25 L 155.25 49.25 L 153.25 47.25 Z M 78.25 17.5 L 78.5 20.5 L 79.25 21.25 L 85.25 21.5 L 86.5 22.25 L 88.75 22.5 L 89.5 23.25 L 91.25 23.5 L 95.75 26.5 L 96.75 26.25 L 100 22.5 L 103.5 20.5 L 105.25 20.5 L 107.5 19.75 L 109.5 20.5 L 112.25 20.5 L 113 21.25 L 114.75 21.5 L 118.75 24.25 L 122.25 28.75 L 122.25 30 L 123.5 31 L 127.75 30.25 L 128.5 29.75 L 130.25 29.75 L 131.5 30.5 L 133.75 30.5 L 134.5 31.25 L 136.25 31.5 L 140.25 34.25 L 142.25 36.75 L 142.5 38 L 143.25 38.75 L 143.5 42 L 144.25 42.75 L 144.5 45 L 145 45.5 L 147.25 45.5 L 148.5 44.25 L 148.5 40.5 L 147.5 39.5 L 147.5 37.5 L 146.5 36.5 L 146.5 34.5 L 144.5 32.5 L 144.5 31.5 L 143.25 30.25 L 142.25 30.25 L 140.25 28.25 L 139.25 28.25 L 138.25 27.25 L 136.25 27.25 L 135.25 26.25 L 132.25 26.25 L 131.25 25.25 L 127.5 25.25 L 126.75 26.5 L 125.75 26.5 L 124.75 25.75 L 125 24 L 123.5 22.5 L 123.5 21.5 L 122.25 21.25 L 119.25 18.25 L 117.25 18.25 L 116.25 17.25 L 114.25 17.25 L 113.25 16.25 L 101.5 16.25 L 100.5 17.25 L 99.5 17.25 L 98.5 18.25 L 97.5 18.25 L 96.25 19.5 L 96.25 20.75 L 95.75 21.25 L 94.25 21.25 L 93.5 20.5 L 94.25 19.75 L 94 19.25 L 92.25 20.25 L 90.25 18.25 L 89.25 18.25 L 88.25 17.25 Z" fill="#58313a" fill-rule="evenodd"/>
</svg>